<?xml version="1.0" encoding="UTF-8" standalone="no"?>
<!-- Created with Inkscape (http://www.inkscape.org/) -->

<svg
   xmlns:dc="http://purl.org/dc/elements/1.1/"
   xmlns:cc="http://creativecommons.org/ns#"
   xmlns:rdf="http://www.w3.org/1999/02/22-rdf-syntax-ns#"
   xmlns:svg="http://www.w3.org/2000/svg"
   xmlns="http://www.w3.org/2000/svg"
   xmlns:sodipodi="http://sodipodi.sourceforge.net/DTD/sodipodi-0.dtd"
   xmlns:inkscape="http://www.inkscape.org/namespaces/inkscape"
   version="1.1"
   id="svg2"
   xml:space="preserve"
   width="436.70844"
   height="245.70392"
   viewBox="0 0 436.70843 245.70392"
   sodipodi:docname="logo.svg"
   inkscape:version="0.92.5 (2060ec1f9f, 2020-04-08)"><metadata
     id="metadata8"><rdf:RDF><cc:Work
         rdf:about=""><dc:format>image/svg+xml</dc:format><dc:type
           rdf:resource="http://purl.org/dc/dcmitype/StillImage" /><dc:title></dc:title></cc:Work></rdf:RDF></metadata><defs
     id="defs6"><clipPath
       clipPathUnits="userSpaceOnUse"
       id="clipPath24"><path
         d="M 0,400 H 400 V 0 H 0 Z"
         id="path22"
         inkscape:connector-curvature="0" /></clipPath></defs><sodipodi:namedview
     pagecolor="#ffffff"
     bordercolor="#666666"
     borderopacity="1"
     objecttolerance="10"
     gridtolerance="10"
     guidetolerance="10"
     inkscape:pageopacity="0"
     inkscape:pageshadow="2"
     inkscape:window-width="2560"
     inkscape:window-height="1391"
     id="namedview4"
     showgrid="false"
     fit-margin-top="0"
     fit-margin-left="0"
     fit-margin-right="0"
     fit-margin-bottom="0"
     inkscape:zoom="2.1226173"
     inkscape:cx="216.04896"
     inkscape:cy="67.896578"
     inkscape:window-x="0"
     inkscape:window-y="0"
     inkscape:window-maximized="1"
     inkscape:current-layer="g10" /><g
     id="g10"
     inkscape:groupmode="layer"
     inkscape:label="InfShareStatsSquare"
     transform="matrix(1.3333333,0,0,-1.3333333,-51.559933,358.2726)"><text
       transform="matrix(1,0,0,-1,36.4438,85.001)"
       style="font-variant:normal;font-weight:500;font-stretch:normal;font-size:71.81130219px;font-family:'Lato Medium';-inkscape-font-specification:Lato-Medium;writing-mode:lr-tb;fill:#ffffff;fill-opacity:1;fill-rule:nonzero;stroke:none;"
       id="text16"><tspan
         x="0 38.454952 78.597466 114.4313 139.38573 176.44037 213.88995 239.88565 275.2886 301.2843"
         y="0"
         sodipodi:role="line"
         id="tspan14">ShareStats</tspan></text>
<g
       id="g18"
       style="fill:#ffffff"
       transform="matrix(0.60687211,0,0,0.60687211,80.315034,71.540752)"><g
         id="g20"
         clip-path="url(#clipPath24)"
         style="fill:#ffffff"><g
           id="g26"
           transform="translate(177.0029,273.2461)"
           style="fill:#ffffff; stroke-width: 2;"><path
             d="m 0,0 c -20.01,24.095 -42.491,36.147 -67.454,36.147 -12.693,0 -23.989,-4.195 -33.888,-12.587 -13.122,-11.407 -19.688,-25.608 -19.688,-42.602 0,-11.19 3.767,-21.09 11.297,-29.693 10.544,-12.053 23.994,-18.074 40.343,-18.074 12.698,0 24.962,4.625 36.793,13.878 8.608,6.884 22.163,21.085 40.666,42.603 C 5.704,-6.455 3.016,-3.016 0,0 m 50.994,-38.729 c 20.01,-24.101 42.496,-36.148 67.454,-36.148 12.698,0 23.994,4.301 33.888,12.91 13.127,11.185 19.687,25.279 19.687,42.28 0,11.401 -3.761,21.406 -11.295,30.015 -10.541,12.047 -23.99,18.073 -40.343,18.073 -12.694,0 -24.958,-4.735 -36.793,-14.2 -8.604,-6.672 -22.159,-20.873 -40.666,-42.603 2.581,-3.873 5.274,-7.317 8.068,-10.327 M 33.889,19.365 c 2.799,3.01 5.92,6.021 9.359,9.036 19.365,15.492 42.391,23.238 69.067,23.238 19.154,0 35.291,-6.243 48.413,-18.719 14.846,-14.418 22.269,-31.846 22.269,-52.285 0,-17.217 -5.376,-32.385 -16.138,-45.507 -13.554,-17 -31.088,-25.497 -52.607,-25.497 -9.894,0 -19.576,1.72 -29.047,5.164 -21.513,7.529 -39.909,21.301 -55.189,41.311 -7.101,-7.962 -11.297,-12.587 -12.588,-13.877 -2.793,-3.445 -6.021,-6.456 -9.682,-9.038 -19.365,-15.709 -42.386,-23.56 -69.068,-23.56 -19.148,0 -35.285,6.238 -48.411,18.719 -14.847,14.413 -22.27,31.841 -22.27,52.285 0,17.212 5.381,32.381 16.137,45.507 13.555,16.995 31.095,25.497 52.608,25.497 9.899,0 19.582,-1.724 29.047,-5.164 21.301,-7.317 39.592,-21.089 54.867,-41.311 7.317,8.174 11.73,12.91 13.233,14.201"
             style="fill:#ffffff;fill-opacity:1;fill-rule:nonzero;stroke:#ffffff"
             id="path28"
             inkscape:connector-curvature="0" /></g></g></g></g></svg>