<?xml version="1.0" encoding="utf-8"?>
<!-- Generator: Adobe Illustrator 25.0.0, SVG Export Plug-In . SVG Version: 6.00 Build 0)  -->
<svg version="1.1" id="Layer_1" xmlns="http://www.w3.org/2000/svg" xmlns:xlink="http://www.w3.org/1999/xlink" x="0px" y="0px"
	 viewBox="0 0 39.5 18.68" style="enable-background:new 0 0 39.5 18.68;" xml:space="preserve">
<style type="text/css">
	.st0{fill:#FFFFFF;}
</style>
<path class="st0" d="M20.76,4.65c0.34-0.36,0.72-0.73,1.13-1.09c2.34-1.88,5.13-2.81,8.36-2.81c2.32,0,4.27,0.76,5.86,2.27
	c1.8,1.74,2.7,3.85,2.7,6.33c0,2.08-0.65,3.92-1.95,5.51c-1.64,2.06-3.76,3.09-6.37,3.09c-1.2,0-2.37-0.21-3.52-0.62
	c-2.6-0.91-4.83-2.58-6.68-5c-0.86,0.96-1.37,1.52-1.52,1.68c-0.34,0.42-0.73,0.78-1.17,1.09c-2.34,1.9-5.13,2.85-8.36,2.85
	c-2.32,0-4.27-0.76-5.86-2.27c-1.8-1.74-2.7-3.85-2.7-6.33c0-2.08,0.65-3.92,1.95-5.51C4.28,1.77,6.4,0.74,9.01,0.74
	c1.2,0,2.37,0.21,3.52,0.62c2.58,0.89,4.79,2.55,6.64,5C20.05,5.38,20.58,4.81,20.76,4.65L20.76,4.65z M22.83,11.68
	c2.42,2.92,5.14,4.38,8.16,4.38c1.54,0,2.9-0.52,4.1-1.56c1.59-1.35,2.38-3.06,2.38-5.12c0-1.38-0.46-2.59-1.37-3.63
	c-1.28-1.46-2.9-2.19-4.88-2.19c-1.54,0-3.02,0.57-4.45,1.72c-1.04,0.81-2.68,2.53-4.92,5.16C22.17,10.9,22.5,11.32,22.83,11.68
	L22.83,11.68z M16.66,6.99c-2.42-2.92-5.14-4.38-8.16-4.38c-1.54,0-2.9,0.51-4.1,1.52C2.81,5.52,2.01,7.24,2.01,9.3
	c0,1.35,0.46,2.55,1.37,3.59c1.28,1.46,2.9,2.19,4.88,2.19c1.54,0,3.02-0.56,4.45-1.68c1.04-0.83,2.68-2.55,4.92-5.16
	C17.35,7.78,17.03,7.36,16.66,6.99L16.66,6.99z"/>
<path d="M16.76,9.94"/>
</svg>
